<svg width="437" height="100" fill="none" xmlns="http://www.w3.org/2000/svg"><path d="M50 0C22.39 0 0 22.39 0 50s22.39 50 50 50 50-22.39 50-50S77.62 0 50 0zM24.67 51.68l.21-.34 13.01-20.35c.19-.29.64-.26.78.06 2.17 4.87 4.05 10.93 3.17 14.7-.37 1.55-1.4 3.65-2.56 5.59-.15.28-.31.56-.49.83-.08.12-.22.19-.37.19H25.05c-.36 0-.57-.39-.38-.68zm57.97 7c0 .19-.11.35-.27.42-1.01.43-4.46 2.02-5.89 4.01-3.66 5.09-6.45 12.37-12.7 12.37H37.72C28.48 75.48 21 67.97 21 58.7v-.3c0-.24.2-.44.45-.44h14.52c.29 0 .5.26.48.55-.11.94.07 1.91.52 2.79a5.104 5.104 0 004.58 2.84h7.19v-5.61h-7.11a.46.46 0 01-.37-.72c.08-.12.16-.24.26-.38.67-.96 1.63-2.44 2.59-4.13.65-1.14 1.28-2.36 1.79-3.58.1-.22.18-.45.27-.67.14-.39.28-.76.38-1.12.1-.31.19-.63.27-.93.24-1.04.34-2.14.34-3.28 0-.45-.02-.92-.06-1.36-.02-.49-.08-.98-.14-1.47-.04-.43-.12-.86-.2-1.3-.11-.65-.25-1.3-.41-1.95l-.06-.25c-.12-.45-.23-.87-.37-1.32-.41-1.4-.87-2.77-1.37-4.05-.18-.51-.38-1-.59-1.48-.3-.74-.61-1.41-.89-2.04-.15-.29-.27-.55-.39-.82-.14-.3-.28-.6-.43-.89-.1-.22-.22-.43-.3-.63l-.88-1.62c-.12-.22.08-.49.32-.42l5.5 1.49h.04l.72.21.8.22.29.08v-3.26c0-1.58 1.26-2.86 2.83-2.86.78 0 1.49.32 1.99.84.51.52.83 1.23.83 2.02v4.85l.59.16c.04.02.09.04.13.07.14.1.35.26.61.46.21.16.43.36.69.57.53.43 1.17.98 1.86 1.61.18.16.36.32.53.49.89.83 1.89 1.8 2.85 2.88.27.31.53.61.8.94.26.33.55.65.79.97.33.43.67.88.98 1.35.14.22.31.45.44.67.4.59.74 1.2 1.07 1.81.14.28.28.59.4.89.37.82.66 1.65.84 2.49.06.18.1.37.12.55v.04c.06.24.08.5.1.77.08.85.04 1.71-.14 2.57-.08.36-.18.7-.3 1.07-.13.35-.25.71-.41 1.06-.31.71-.67 1.43-1.1 2.09-.14.25-.31.51-.47.76-.18.26-.37.51-.53.75-.23.31-.47.63-.72.92-.22.3-.44.6-.69.87-.34.41-.67.79-1.02 1.16-.2.24-.42.49-.65.71-.22.25-.45.47-.65.67-.35.35-.63.61-.87.84l-.57.51c-.08.08-.19.12-.3.12h-4.38v5.61h5.51c1.23 0 2.4-.43 3.35-1.24.32-.28 1.73-1.5 3.4-3.34.06-.07.13-.11.21-.13l15.21-4.4c.29-.08.57.13.57.43v3.22zM148.723 73.997c-4.52 0-8.675-1.013-12.464-3.04-3.744-2.025-6.735-4.843-8.972-8.455-2.191-3.655-3.287-7.75-3.287-12.287 0-4.536 1.096-8.61 3.287-12.22 2.237-3.612 5.228-6.43 8.972-8.456 3.789-2.026 7.944-3.039 12.464-3.039 4.52 0 8.652 1.013 12.396 3.039 3.79 2.025 6.757 4.844 8.903 8.455 2.192 3.611 3.287 7.685 3.287 12.221 0 4.536-1.095 8.632-3.287 12.287-2.191 3.611-5.159 6.43-8.903 8.456-3.744 2.026-7.876 3.039-12.396 3.039zm0-10.306c3.835 0 6.894-1.233 9.177-3.699 2.329-2.466 3.493-5.725 3.493-9.777 0-4.095-1.164-7.354-3.493-9.777-2.283-2.466-5.342-3.699-9.177-3.699-3.881 0-6.985 1.211-9.314 3.633-2.283 2.423-3.424 5.703-3.424 9.843 0 4.096 1.141 7.377 3.424 9.843 2.329 2.422 5.433 3.633 9.314 3.633zM191.536 41.892c1.141-1.718 2.716-3.105 4.725-4.162 2.009-1.057 4.36-1.585 7.054-1.585 3.15 0 6.004.77 8.561 2.312 2.556 1.541 4.565 3.743 6.026 6.606 1.507 2.862 2.26 6.187 2.26 9.975 0 3.787-.753 7.134-2.26 10.04-1.461 2.863-3.47 5.087-6.026 6.673-2.557 1.541-5.411 2.312-8.561 2.312-2.648 0-4.999-.529-7.054-1.586-2.009-1.057-3.584-2.422-4.725-4.096V84.5h-11.711V36.673h11.711v5.219zm16.71 13.146c0-2.819-.822-5.02-2.466-6.606-1.598-1.63-3.584-2.445-5.958-2.445-2.328 0-4.314.815-5.958 2.445-1.598 1.63-2.397 3.853-2.397 6.672 0 2.818.799 5.042 2.397 6.672 1.644 1.63 3.63 2.444 5.958 2.444 2.329 0 4.315-.815 5.958-2.444 1.644-1.674 2.466-3.92 2.466-6.738zM262.329 54.51a27.82 27.82 0 01-.205 3.302H235.62c.183 2.29.936 4.052 2.26 5.285 1.37 1.189 3.036 1.783 5 1.783 2.922 0 4.953-1.189 6.095-3.567h12.464c-.639 2.422-1.803 4.602-3.493 6.54-1.643 1.938-3.721 3.457-6.232 4.558s-5.319 1.652-8.423 1.652c-3.744 0-7.077-.771-9.999-2.312-2.922-1.542-5.205-3.744-6.849-6.606-1.643-2.863-2.465-6.21-2.465-10.041 0-3.832.799-7.179 2.397-10.041 1.643-2.863 3.926-5.065 6.848-6.606 2.922-1.542 6.278-2.312 10.068-2.312 3.698 0 6.985.748 9.861 2.246 2.877 1.497 5.114 3.633 6.712 6.407 1.644 2.775 2.465 6.012 2.465 9.711zm-11.984-2.974c0-1.937-.685-3.479-2.055-4.624-1.37-1.145-3.082-1.717-5.136-1.717-1.964 0-3.63.55-5 1.651-1.324 1.101-2.146 2.665-2.465 4.69h14.656zM291.793 36.277c4.474 0 8.035 1.409 10.683 4.228 2.694 2.774 4.041 6.605 4.041 11.494v21.535h-11.643V53.518c0-2.466-.662-4.382-1.986-5.747-1.324-1.365-3.104-2.048-5.341-2.048-2.238 0-4.018.683-5.342 2.048-1.324 1.365-1.986 3.281-1.986 5.747v20.016h-11.711v-36.86h11.711v4.888c1.187-1.63 2.785-2.907 4.794-3.832 2.008-.969 4.268-1.453 6.78-1.453zM332.05 73.997c-3.515 0-6.666-.55-9.451-1.652-2.785-1.1-5.022-2.73-6.711-4.888-1.644-2.158-2.512-4.756-2.603-7.795h12.464c.183 1.717.799 3.038 1.85 3.963 1.05.881 2.419 1.322 4.109 1.322 1.735 0 3.104-.375 4.109-1.123 1.004-.793 1.507-1.872 1.507-3.237 0-1.146-.411-2.092-1.233-2.841-.776-.749-1.758-1.365-2.945-1.85-1.142-.484-2.785-1.035-4.931-1.651-3.105-.925-5.639-1.85-7.602-2.775-1.963-.924-3.652-2.29-5.068-4.095-1.415-1.806-2.123-4.162-2.123-7.069 0-4.316 1.621-7.684 4.863-10.107 3.241-2.466 7.464-3.699 12.669-3.699 5.297 0 9.565 1.233 12.807 3.7 3.242 2.421 4.977 5.813 5.205 10.172h-12.67c-.091-1.497-.662-2.664-1.712-3.5-1.05-.882-2.397-1.322-4.041-1.322-1.415 0-2.556.374-3.424 1.123-.867.705-1.301 1.74-1.301 3.105 0 1.497.73 2.664 2.192 3.501 1.461.837 3.743 1.74 6.848 2.708 3.105 1.013 5.616 1.982 7.533 2.907 1.964.925 3.653 2.268 5.068 4.03 1.416 1.761 2.123 4.03 2.123 6.804 0 2.642-.707 5.042-2.123 7.2-1.369 2.158-3.378 3.876-6.026 5.153-2.648 1.277-5.776 1.916-9.383 1.916zM392.813 54.51c0 1.056-.069 2.157-.206 3.302h-26.504c.183 2.29.936 4.052 2.26 5.285 1.37 1.189 3.037 1.783 5 1.783 2.922 0 4.954-1.189 6.095-3.567h12.464c-.639 2.422-1.803 4.602-3.492 6.54-1.644 1.938-3.721 3.457-6.233 4.558-2.511 1.101-5.319 1.652-8.423 1.652-3.744 0-7.077-.771-9.999-2.312-2.922-1.542-5.205-3.744-6.849-6.606-1.643-2.863-2.465-6.21-2.465-10.041 0-3.832.799-7.179 2.397-10.041 1.643-2.863 3.926-5.065 6.848-6.606 2.922-1.542 6.278-2.312 10.068-2.312 3.698 0 6.985.748 9.862 2.246 2.876 1.497 5.113 3.633 6.711 6.407 1.644 2.775 2.466 6.012 2.466 9.711zm-11.985-2.974c0-1.937-.685-3.479-2.055-4.624-1.37-1.145-3.082-1.717-5.136-1.717-1.963 0-3.63.55-5 1.651-1.324 1.101-2.146 2.665-2.465 4.69h14.656zM396.662 55.038c0-3.788.731-7.113 2.192-9.975 1.506-2.863 3.538-5.065 6.095-6.606 2.557-1.542 5.41-2.312 8.561-2.312 2.693 0 5.045.528 7.054 1.585 2.054 1.057 3.629 2.444 4.725 4.162v-5.219H437v36.861h-11.711v-5.219c-1.141 1.718-2.739 3.105-4.794 4.162-2.009 1.057-4.36 1.586-7.054 1.586-3.105 0-5.935-.771-8.492-2.312-2.557-1.586-4.589-3.81-6.095-6.672-1.461-2.907-2.192-6.254-2.192-10.041zm28.627.066c0-2.819-.822-5.043-2.465-6.672-1.598-1.63-3.562-2.445-5.89-2.445-2.329 0-4.315.815-5.958 2.445-1.598 1.585-2.397 3.787-2.397 6.606 0 2.818.799 5.064 2.397 6.738 1.643 1.63 3.629 2.444 5.958 2.444 2.328 0 4.292-.815 5.89-2.444 1.643-1.63 2.465-3.854 2.465-6.672z" fill="#fff"/></svg>