<svg viewBox="0 0 231 323" fill="none" preserveAspectRatio="none" xmlns="http://www.w3.org/2000/svg">
<mask id="path-1-inside-1" fill="white">
<path d="M207.147 322.652H23.8504L23.7572 322.56L0.430832 299.165V23.8846L0.524005 23.7914L23.8504 0.398438H207.147L207.239 0.491118L230.568 23.8846V299.165L230.476 299.259L207.147 322.652ZM24.1128 322.016H206.885L229.934 298.902V24.1487L206.885 1.03437H24.1128L1.06554 24.1487V298.902L24.1128 322.016Z"/>
</mask>
<path d="M207.147 322.652H23.8504L23.7572 322.56L0.430832 299.165V23.8846L0.524005 23.7914L23.8504 0.398438H207.147L207.239 0.491118L230.568 23.8846V299.165L230.476 299.259L207.147 322.652ZM24.1128 322.016H206.885L229.934 298.902V24.1487L206.885 1.03437H24.1128L1.06554 24.1487V298.902L24.1128 322.016Z" fill="#66CEF5"/>
<path d="M207.147 322.652V324.315H207.837L208.324 323.826L207.147 322.652ZM23.8504 322.652L22.6818 323.834L23.1675 324.315H23.8504V322.652ZM23.7572 322.56L22.5801 323.734L22.5886 323.742L23.7572 322.56ZM0.430832 299.165H-1.2314V299.852L-0.746265 300.339L0.430832 299.165ZM0.430832 23.8846L-0.745017 22.7097L-1.2314 23.1965V23.8846H0.430832ZM0.524005 23.7914L1.69985 24.9663L1.70105 24.9651L0.524005 23.7914ZM23.8504 0.398438V-1.2638H23.1605L22.6733 -0.775262L23.8504 0.398438ZM207.147 0.398438L208.323 -0.776585L207.836 -1.2638H207.147V0.398438ZM207.239 0.491118L208.416 -0.682634L208.415 -0.683904L207.239 0.491118ZM230.568 23.8846H232.231V23.1974L231.745 22.7109L230.568 23.8846ZM230.568 299.165L231.753 300.332L232.231 299.846V299.165H230.568ZM230.476 299.259L231.653 300.433L231.66 300.426L230.476 299.259ZM24.1128 322.016L22.9357 323.19L23.4228 323.678H24.1128V322.016ZM206.885 322.016V323.678H207.575L208.062 323.19L206.885 322.016ZM229.934 298.902L231.111 300.076L231.597 299.589V298.902H229.934ZM229.934 24.1487H231.597V23.4615L231.111 22.975L229.934 24.1487ZM206.885 1.03437L208.062 -0.139356L207.575 -0.627865H206.885V1.03437ZM24.1128 1.03437V-0.627865H23.4228L22.9357 -0.139299L24.1128 1.03437ZM1.06554 24.1487L-0.111546 22.975L-0.596695 23.4616V24.1487H1.06554ZM1.06554 298.902H-0.596695V299.589L-0.111536 300.076L1.06554 298.902ZM207.147 320.99H23.8504V324.315H207.147V320.99ZM25.0189 321.47L24.9258 321.378L22.5886 323.742L22.6818 323.834L25.0189 321.47ZM24.9343 321.387L1.60793 297.992L-0.746265 300.339L22.5801 323.734L24.9343 321.387ZM2.09306 299.165V23.8846H-1.2314V299.165H2.09306ZM1.60668 25.0595L1.69985 24.9663L-0.651844 22.6165L-0.745017 22.7097L1.60668 25.0595ZM1.70105 24.9651L25.0274 1.57214L22.6733 -0.775262L-0.653044 22.6177L1.70105 24.9651ZM23.8504 2.06067H207.147V-1.2638H23.8504V2.06067ZM205.971 1.57346L206.064 1.66614L208.415 -0.683904L208.323 -0.776585L205.971 1.57346ZM206.062 1.66487L229.391 25.0584L231.745 22.7109L208.416 -0.682634L206.062 1.66487ZM228.906 23.8846V299.165H232.231V23.8846H228.906ZM229.384 297.999L229.291 298.093L231.66 300.426L231.753 300.332L229.384 297.999ZM229.299 298.086L205.97 321.479L208.324 323.826L231.653 300.433L229.299 298.086ZM24.1128 323.678H206.885V320.354H24.1128V323.678ZM208.062 323.19L231.111 300.076L228.757 297.728L205.708 320.842L208.062 323.19ZM231.597 298.902V24.1487H228.272V298.902H231.597ZM231.111 22.975L208.062 -0.139356L205.708 2.20809L228.757 25.3224L231.111 22.975ZM206.885 -0.627865H24.1128V2.6966H206.885V-0.627865ZM22.9357 -0.139299L-0.111546 22.975L2.24262 25.3224L25.2898 2.20803L22.9357 -0.139299ZM-0.596695 24.1487V298.902H2.72777V24.1487H-0.596695ZM-0.111536 300.076L22.9357 323.19L25.2898 320.842L2.24261 297.728L-0.111536 300.076Z" fill="url(#paint200_linear)" fill-opacity="0.9" mask="url(#path-1-inside-1)"/>
<g opacity="0.4">
<path d="M223.766 289.94V293.817L223.447 294.137L220.592 297L204.253 313.391H190.581L189.292 312.092H178.468L178.027 312.541L177.173 313.391H137.138L137.016 313.262L134.391 310.63L133.434 309.677H89.9675L89.0179 310.63L87.3222 312.33L86.6715 312.983L86.2645 313.391H70.5234L69.8789 312.738L68.9633 311.82L68.0474 310.908H43.5305L42.6212 311.82L41.6992 312.738L41.0546 313.391H26.4797L24.0054 310.908L6.96059 293.817V289.94L8.96785 287.927V24.6336L10.1352 23.4707L18.172 15.4048H25.2522L28.2029 18.3692H73.4874L76.1316 15.7176L76.4371 15.4048H128.218L136.263 23.4707L140.501 27.7151H188.73L190.838 29.8232H220.592V286.757L221.758 287.927L223.766 289.94Z" fill="#00AEEF"/>
<path d="M223.766 289.94V293.817L223.447 294.137L220.592 297L204.253 313.391H190.581L189.292 312.092H178.468L178.027 312.541L177.173 313.391H137.138L137.016 313.262L134.391 310.63L133.434 309.677H89.9675L89.0179 310.63L87.3222 312.33L86.6715 312.983L86.2645 313.391H70.5234L69.8789 312.738L68.9633 311.82L68.0474 310.908H43.5305L42.6212 311.82L41.6992 312.738L41.0546 313.391H26.4797L24.0054 310.908L6.96059 293.817V289.94L8.96785 287.927V24.6336L10.1352 23.4707L18.172 15.4048H25.2522L28.2029 18.3692H73.4874L76.1316 15.7176L76.4371 15.4048H128.218L136.263 23.4707L140.501 27.7151H188.73L190.838 29.8232H220.592V286.757L221.758 287.927L223.766 289.94Z" fill="url(#paint201_linear)"/>
</g>
<path d="M157.528 23.4722H142.39L126.046 7.08203H141.184L157.528 23.4722Z" fill="#66CEF5"/>
<path d="M69.2878 309.641H42.5661L43.6652 308.537H68.1866L69.2878 309.641Z" fill="#66CEF5"/>
<path d="M189.871 310.173H178.161L178.606 309.728H189.427L189.871 310.173Z" fill="#66CEF5"/>
<path d="M178.652 23.4722H163.504L147.16 7.08203H162.309L178.652 23.4722Z" fill="#66CEF5"/>
<path d="M199.767 23.4722H184.63L168.286 7.08203H183.424L199.767 23.4722Z" fill="#66CEF5"/>
<path d="M220.734 23.4722H205.744L189.411 7.08203H204.39L220.734 23.4722Z" fill="#66CEF5"/>
<path d="M157.528 23.4722H142.39L126.046 7.08203H141.184L157.528 23.4722Z" fill="#66CEF5"/>
<path d="M157.528 23.4722H142.39L126.046 7.08203H141.184L157.528 23.4722Z" fill="url(#paint202_linear)"/>
<path d="M178.652 23.4722H163.504L147.16 7.08203H162.309L178.652 23.4722Z" fill="#66CEF5"/>
<path d="M178.652 23.4722H163.504L147.16 7.08203H162.309L178.652 23.4722Z" fill="url(#paint203_linear)"/>
<path d="M199.767 23.4722H184.63L168.286 7.08203H183.424L199.767 23.4722Z" fill="#66CEF5"/>
<path d="M199.767 23.4722H184.63L168.286 7.08203H183.424L199.767 23.4722Z" fill="url(#paint204_linear)"/>
<path d="M220.734 23.4722H205.744L189.411 7.08203H204.39L220.734 23.4722Z" fill="#66CEF5"/>
<path d="M220.734 23.4722H205.744L189.411 7.08203H204.39L220.734 23.4722Z" fill="url(#paint205_linear)"/>
<path d="M29.0414 308.567H26.6183L9.98817 291.891H12.5281L29.0414 308.567Z" fill="#66CEF5"/>
<path d="M223.904 29.8228V50.1381L221.893 48.122V29.8228H223.904Z" fill="#66CEF5"/>
<path d="M223.904 29.8228V50.1381L221.893 48.122V29.8228H223.904Z" fill="#66CEF5"/>
<path opacity="0.4" d="M125.184 12.2228H21.4832L22.9003 10.8013L26.6131 7.07764H77.9511L78.4066 7.53387H91.1003L91.5542 7.07764H120.055L123.153 10.1869L125.184 12.2228Z" fill="#00AEEF"/>
<path d="M120.107 6.94238H91.4998L91.046 7.40446H78.4586L78.0031 6.94238H26.5545L21.1623 12.3566H125.505L120.107 6.94238ZM21.8004 12.091L25.5094 8.37035L26.6697 7.20759H77.895L78.3494 7.66306H91.154L91.609 7.20759H119.999L120.514 7.72441L124.861 12.091H21.8004Z" fill="#66CEF5"/>
<path d="M127.966 15.4048V15.7127H76.268L76.5746 15.4048H127.966Z" fill="#66CEF5"/>
<path d="M140.639 27.7096H140.206L139.042 26.544L127.934 15.4048H128.358L139.464 26.544L140.639 27.7096Z" fill="#66CEF5"/>
<path opacity="0.6" d="M134.859 302.869H169.41L166.403 305.882H137.863L134.859 302.869Z" fill="#66CEF5"/>
<path d="M179.379 305.079L176.375 308.092H172.154L175.158 305.079H179.379Z" fill="#66CEF5"/>
<path d="M187.809 305.079L184.805 308.092H180.595L183.6 305.079H187.809Z" fill="#66CEF5"/>
<path d="M196.262 305.079L193.258 308.092H189.026L192.029 305.079H196.262Z" fill="#66CEF5"/>
<path opacity="0.6" d="M84.3246 21.1177L81.3209 24.1305H77.1001L80.1038 21.1177H84.3246Z" fill="#66CEF5"/>
<path opacity="0.6" d="M92.7549 21.1177L89.75 24.1305H85.5397L88.5451 21.1177H92.7549Z" fill="#66CEF5"/>
<path opacity="0.6" d="M101.208 21.1177L98.2037 24.1305H93.9719L96.9757 21.1177H101.208Z" fill="#66CEF5"/>
<path opacity="0.6" d="M32.9482 21.1177H32.3455H32.2687H31.6666H30.911H30.3089H28.7383H28.0584H26.7019H19.0544H18.375H17.0179L14.0136 24.1305H15.3713H16.0495H29.7062H31.0633H31.7423H31.7521H33.1097H33.7887H33.9165H35.2747H35.9531L32.9482 21.1177Z" fill="#66CEF5"/>
<path d="M204.692 305.079L201.688 308.092H197.478L200.483 305.079H204.692Z" fill="#66CEF5"/>
<path d="M220.031 29.8228H205.877L206.575 30.5227H220.031V34.4689L220.729 35.1694V30.5227V29.8228H220.031Z" fill="#66CEF5"/>
<path d="M220.031 41.7265V43.1509V46.3738V47.7968L220.729 48.4973V46.3738V43.1509V41.0273L220.031 41.7265Z" fill="#66CEF5"/>
<path opacity="0.6" d="M121.708 15.4048L117.415 19.7166H77.7126L72.9177 24.5181H39.0615L32.9234 18.3692H33.8124L39.319 23.8854H72.6602L77.448 19.0765H117.151L120.814 15.4048H121.708Z" fill="#66CEF5"/>
<path opacity="0.6" d="M197.065 29.8249L194.311 32.5932H155.151L155.055 32.4981L150.281 27.7168H151.183L155.409 31.9529H194.047L196.169 29.8249H197.065Z" fill="#66CEF5"/>
<path opacity="0.6" d="M117.964 12.3566H117.062L116.926 12.2201L116.797 12.0914L114.464 9.75169H69.8514L67.3143 7.20759L67.1858 7.07904L67.05 6.94238H67.9528L68.0879 7.07904L68.2165 7.20759L70.1163 9.11274H114.728L117.699 12.0914L117.828 12.2201L117.964 12.3566Z" fill="#66CEF5"/>
<path d="M110.321 10.9287H80.9662L80.1622 11.7362H50.9215L50.4352 12.224H79.6758H81.2299H111.612L110.321 10.9287Z" fill="#66CEF5"/>
<path d="M125.184 12.2228L123.895 10.9276L123.153 10.1869L121.345 8.37215L120.7 7.7247L120.055 7.07764H118.393H107.656L108.301 7.7247H119.038L123.524 12.2228H125.184Z" fill="#66CEF5"/>
<path d="M136.399 23.3409H134.702L127.506 16.1178H114.301L112.64 17.7911H82.3102L81.4829 16.961L79.8011 15.2744H126.666L126.679 15.2882L127.778 15.2744H128.354L136.399 23.3409Z" fill="#66CEF5"/>
<path d="M127.778 15.4004L126.679 15.4136L126.666 15.4004H127.778Z" fill="#66CEF5"/>
<path opacity="0.6" d="M223.903 288.678V288.998L223.583 289.318H217.54L206.465 300.424H173.809L165.683 308.572H164.782L173.545 299.784H206.2L217.276 288.678H223.903Z" fill="#66CEF5"/>
<path d="M190.973 29.8197L188.866 27.708H156.214H154.856H140.206L140.713 28.2175H155.365L156.953 29.8106L190.973 29.8197Z" fill="#66CEF5"/>
<path d="M220.864 284.614V29.6935H191.029L188.919 27.5779H140.692L128.45 15.3148L128.417 15.2744H76.5182L74.7144 17.0833L73.5679 18.2326H28.3916L27.2457 17.0833L25.443 15.2744H18.2527L16.6055 16.9268L10.1756 23.3746L8.97568 24.5785V285.784L6.96126 287.797V291.782L24.0452 308.908L26.5549 311.431H41.245L43.7203 308.949H68.1292L70.6046 311.431H86.4544L90.1579 307.718H133.516L137.219 311.431H177.363L178.658 310.139H189.375L190.662 311.431H204.444L223.997 291.823L224.038 291.782V287.797L220.864 284.614ZM223.773 291.674L220.83 294.625L206.133 309.357L204.328 311.167H190.771L189.483 309.874H178.55L177.254 311.167H137.327L133.631 307.452H90.0486L86.3456 311.167H70.7198L68.2438 308.684H43.6115L41.1356 311.167H26.6699L7.22534 291.674V287.906L9.2392 285.893V24.6873L16.6055 17.3015L18.3613 15.5396H25.3338L26.873 17.0833L28.2433 18.4575L28.2836 18.4979H73.6772L75.0873 17.0833L76.6275 15.5396H128.3L140.583 27.8437H188.811L190.921 29.9588H220.599V284.723L223.773 287.906L223.773 291.674Z" fill="#66CEF5"/>
<path d="M59.7536 6.94238L59.4889 7.20759L58.4642 8.24086H26.8464L22.9879 12.091L22.7227 12.3566H21.177L25.2802 8.24086L26.5679 6.94238H59.7536Z" fill="#66CEF5"/>
<path d="M59.7536 6.94238L59.4889 7.20759L58.4642 8.24086H26.8464L22.9879 12.091L22.7227 12.3566H21.177L25.2802 8.24086L26.5679 6.94238H59.7536Z" fill="#66CEF5"/>
<path d="M75.0879 17.0811L73.6779 18.4956L70.7413 21.4408H40.533L37.603 18.4956H28.2842L28.2439 18.4552L26.8734 17.0811H75.0879Z" fill="#66CEF5"/>
<path d="M75.0879 17.0811L73.6779 18.4956L70.7413 21.4408H40.533L37.603 18.4956H28.2842L28.2439 18.4552L26.8734 17.0811H75.0879Z" fill="#AF12A0"/>
<path d="M16.6055 16.9263V18.8308L10.3315 25.0816V37.8202L9.23922 38.9218L8.97551 39.1868V24.5778L10.1755 23.3739L16.6055 16.9263Z" fill="#66CEF5"/>
<path d="M16.6055 16.9263V18.8308L10.3315 25.0816V37.8202L9.23922 38.9218L8.97551 39.1868V24.5778L10.1755 23.3739L16.6055 16.9263Z" fill="#66CEF5"/>
<path d="M221.203 282.607L206.133 297.719V295.067L218.477 282.607H221.203Z" fill="#66CEF5"/>
<path d="M221.203 294.561L206.133 309.673V307.02L218.477 294.561H221.203Z" fill="#66CEF5"/>
<path d="M171.733 311.368H137.219L133.516 307.654H90.1577L86.4541 311.368H74.7011L74.9658 311.103L75.2367 310.831L75.4125 310.654H86.2777L93.2023 303.717H131.501L137.945 310.178H170.546L171.469 311.103L171.733 311.368Z" fill="#66CEF5"/>
<path d="M122.963 302.955H122.068L117.11 297.983H72.6399L67.6344 303.009H27.5114L27.4166 302.913L13.3023 288.76H6.96162V288.127H13.5669L13.6552 288.223L27.7689 302.377H67.3703L72.3818 297.35H117.375L117.47 297.439L122.963 302.955Z" fill="#66CEF5"/>
<defs>
<linearGradient id="paint200_linear" x1="227.786" y1="0.398451" x2="43.2561" y2="-42.5431" gradientUnits="userSpaceOnUse">
<stop offset="0.00393049" stop-color="#2958FF"/>
<stop offset="0.467083" stop-color="#E248FB"/>
<stop offset="1" stop-color="#F71C1C"/>
</linearGradient>
<linearGradient id="paint201_linear" x1="7.01739" y1="39.9466" x2="223.749" y2="39.9466" gradientUnits="userSpaceOnUse">
<stop stop-color="#702AE3" stop-opacity="0.7"/>
<stop offset="1" stop-color="#0F3EB7" stop-opacity="0.1"/>
</linearGradient>
<linearGradient id="paint202_linear" x1="126.046" y1="15.2771" x2="153.782" y2="20.9746" gradientUnits="userSpaceOnUse">
<stop stop-color="#9327FF"/>
<stop offset="1" stop-color="#AC00E9"/>
</linearGradient>
<linearGradient id="paint203_linear" x1="147.16" y1="15.2771" x2="174.904" y2="20.9783" gradientUnits="userSpaceOnUse">
<stop stop-color="#9327FF"/>
<stop offset="1" stop-color="#AC00E9"/>
</linearGradient>
<linearGradient id="paint204_linear" x1="168.286" y1="15.2771" x2="196.021" y2="20.9744" gradientUnits="userSpaceOnUse">
<stop stop-color="#9327FF"/>
<stop offset="1" stop-color="#AC00E9"/>
</linearGradient>
<linearGradient id="paint205_linear" x1="189.411" y1="15.2771" x2="217.017" y2="20.9195" gradientUnits="userSpaceOnUse">
<stop stop-color="#9327FF"/>
<stop offset="1" stop-color="#AC00E9"/>
</linearGradient>
</defs>
</svg>
