<svg viewBox="0 0 1081 756" preserveAspectRatio="none" fill="none" xmlns="http://www.w3.org/2000/svg">
<path d="M752.245 33.9658L705.495 0H666.537L713.995 33.9658H752.245Z" fill="#15A0FF"/>
<path d="M752.245 33.9658L705.495 0H666.537L713.995 33.9658H752.245Z" fill="url(#paint0_linear)" fill-opacity="0.65"/>
<path d="M818.118 33.9658L771.369 0H732.41L779.16 33.9658H818.118Z" fill="#15A0FF"/>
<path d="M818.118 33.9658L771.369 0H732.41L779.16 33.9658H818.118Z" fill="url(#paint1_linear)" fill-opacity="0.65"/>
<path d="M883.287 33.9658L836.537 0H798.287L845.037 33.9658H883.287Z" fill="#15A0FF"/>
<path d="M883.287 33.9658L836.537 0H798.287L845.037 33.9658H883.287Z" fill="url(#paint2_linear)" fill-opacity="0.65"/>
<path d="M949.165 33.9658L902.415 0H863.457L910.915 33.9658H949.165Z" fill="#15A0FF"/>
<path d="M949.165 33.9658L902.415 0H863.457L910.915 33.9658H949.165Z" fill="url(#paint3_linear)" fill-opacity="0.65"/>
<path d="M1015.04 33.9658L967.582 0H929.332L976.082 33.9658H1015.04Z" fill="#15A0FF"/>
<path d="M1015.04 33.9658L967.582 0H929.332L976.082 33.9658H1015.04Z" fill="url(#paint4_linear)" fill-opacity="0.65"/>
<path d="M1080.21 33.9658L1033.46 0H995.209L1041.96 33.9658H1080.21Z" fill="#15A0FF"/>
<path d="M1080.21 33.9658L1033.46 0H995.209L1041.96 33.9658H1080.21Z" fill="url(#paint5_linear)" fill-opacity="0.65"/>
<path d="M579 754.681L649.125 705H687.375L616.542 755.188L579 754.681Z" fill="#15A0FF"/>
<path d="M579 754.681L649.125 705H687.375L616.542 755.188L579 754.681Z" fill="url(#paint6_linear)" fill-opacity="0.65"/>
<path d="M121.833 12.6719H92.7916L0 79.0826V100.375L121.833 12.6719Z" fill="#15A0FF"/>
<path d="M121.833 12.6719H92.7916L0 79.0826V100.375L121.833 12.6719Z" fill="url(#paint7_linear)" fill-opacity="0.65"/>
<defs>
<linearGradient id="paint0_linear" x1="745.012" y1="1.61522e-05" x2="680.262" y2="-12.4461" gradientUnits="userSpaceOnUse">
<stop stop-color="#2958FF"/>
<stop offset="0.467083" stop-color="#E248FB"/>
<stop offset="1" stop-color="#12FED9"/>
</linearGradient>
<linearGradient id="paint1_linear" x1="810.885" y1="1.61522e-05" x2="746.135" y2="-12.4461" gradientUnits="userSpaceOnUse">
<stop stop-color="#2958FF"/>
<stop offset="0.467083" stop-color="#E248FB"/>
<stop offset="1" stop-color="#12FED9"/>
</linearGradient>
<linearGradient id="paint2_linear" x1="876.114" y1="1.61522e-05" x2="811.861" y2="-12.2484" gradientUnits="userSpaceOnUse">
<stop stop-color="#2958FF"/>
<stop offset="0.467083" stop-color="#E248FB"/>
<stop offset="1" stop-color="#12FED9"/>
</linearGradient>
<linearGradient id="paint3_linear" x1="941.932" y1="1.61522e-05" x2="877.182" y2="-12.4461" gradientUnits="userSpaceOnUse">
<stop stop-color="#2958FF"/>
<stop offset="0.467083" stop-color="#E248FB"/>
<stop offset="1" stop-color="#12FED9"/>
</linearGradient>
<linearGradient id="paint4_linear" x1="1007.81" y1="1.61522e-05" x2="943.057" y2="-12.4461" gradientUnits="userSpaceOnUse">
<stop stop-color="#2958FF"/>
<stop offset="0.467083" stop-color="#E248FB"/>
<stop offset="1" stop-color="#12FED9"/>
</linearGradient>
<linearGradient id="paint5_linear" x1="1073.04" y1="1.61522e-05" x2="1008.78" y2="-12.2485" gradientUnits="userSpaceOnUse">
<stop stop-color="#2958FF"/>
<stop offset="0.467083" stop-color="#E248FB"/>
<stop offset="1" stop-color="#12FED9"/>
</linearGradient>
<linearGradient id="paint6_linear" x1="678.229" y1="705" x2="595.566" y2="691.403" gradientUnits="userSpaceOnUse">
<stop stop-color="#2958FF"/>
<stop offset="0.467083" stop-color="#E248FB"/>
<stop offset="1" stop-color="#12FED9"/>
</linearGradient>
<linearGradient id="paint7_linear" x1="111.552" y1="12.6719" x2="17.1661" y2="2.6841" gradientUnits="userSpaceOnUse">
<stop stop-color="#2958FF"/>
<stop offset="0.467083" stop-color="#E248FB"/>
<stop offset="1" stop-color="#12FED9"/>
</linearGradient>
</defs>
</svg>
